<svg width="130" height="40" viewBox="0 0 130 40" fill="none" xmlns="http://www.w3.org/2000/svg">
<g clip-path="url(#clip0_362_2531)">
<path d="M27.4385 34.1953H23.6543C22.4508 34.1279 19.8472 33.4045 19.0615 31.0479L13.7188 20.3604L9.99219 28.1299L15.1914 28.0723C15.0759 30.1133 13.7994 34.1953 9.61719 34.1953H-0.000976562L13.7188 6.69922L27.4385 34.1953ZM22.6436 5.80273C24.6559 5.93768 28.6796 7.27027 28.6797 11.5215V32.5771L22.6436 20.1572V5.80273Z" fill="white"/>
<path d="M126.726 29.5492V14.1104H129.642V29.5492H126.726Z" fill="white"/>
<path d="M110.802 29.5492L115.519 14.1104H119.872L124.59 29.5492H121.588L117.385 15.933H117.942L113.804 29.5492H110.802ZM113.632 26.3328V23.6095H121.78V26.3328H113.632Z" fill="white"/>
<path d="M105.744 16.3622V13.7891H108.66V16.3622H105.744ZM105.744 29.5495V17.9704H108.66V29.5495H105.744Z" fill="white"/>
<path d="M99.7884 29.5492V24.0813C99.7884 23.8168 99.7741 23.4809 99.7455 23.0735C99.7169 22.6589 99.6276 22.2443 99.4775 21.8298C99.3274 21.4152 99.0808 21.0686 98.7377 20.7898C98.4017 20.511 97.9229 20.3717 97.301 20.3717C97.0509 20.3717 96.7828 20.411 96.4969 20.4896C96.211 20.5682 95.943 20.7219 95.6928 20.9506C95.4426 21.1722 95.2354 21.501 95.071 21.937C94.9137 22.373 94.8351 22.9519 94.8351 23.6739L93.1625 22.8805C93.1625 21.9656 93.3484 21.1079 93.7201 20.3073C94.0917 19.5068 94.6492 18.8599 95.3926 18.3668C96.1431 17.8736 97.0866 17.627 98.2231 17.627C99.1308 17.627 99.8706 17.7807 100.442 18.088C101.014 18.3953 101.457 18.7849 101.772 19.2566C102.093 19.7284 102.322 20.2216 102.458 20.7362C102.594 21.2437 102.676 21.7083 102.705 22.13C102.733 22.5517 102.747 22.859 102.747 23.052V29.5492H99.7884ZM91.876 29.5492V14.1104H94.4706V22.0442H94.8351V29.5492H91.876Z" fill="white"/>
<path d="M84.4996 29.8699C83.2988 29.8699 82.2696 29.6018 81.4118 29.0658C80.5541 28.5297 79.8965 27.8006 79.4391 26.8786C78.9817 25.9566 78.7529 24.9166 78.7529 23.7587C78.7529 22.5865 78.9888 21.5393 79.4605 20.6173C79.9394 19.6953 80.6113 18.9698 81.4762 18.4408C82.341 17.9119 83.3631 17.6475 84.5425 17.6475C85.9077 17.6475 87.0513 17.9941 87.9733 18.6874C88.9025 19.3736 89.4958 20.3135 89.7531 21.5072L86.8369 22.2791C86.6653 21.6787 86.3651 21.2105 85.9363 20.8746C85.5146 20.5387 85.0357 20.3707 84.4996 20.3707C83.8849 20.3707 83.381 20.5208 82.9879 20.821C82.5948 21.1141 82.3053 21.5179 82.1195 22.0325C81.9336 22.54 81.8407 23.1154 81.8407 23.7587C81.8407 24.7665 82.0623 25.5849 82.5054 26.2139C82.9557 26.8357 83.6205 27.1466 84.4996 27.1466C85.1572 27.1466 85.6575 26.9965 86.0006 26.6963C86.3437 26.3961 86.601 25.9673 86.7725 25.4098L89.7531 26.0316C89.4243 27.261 88.8025 28.2081 87.8876 28.8728C86.9727 29.5375 85.8434 29.8699 84.4996 29.8699Z" fill="white"/>
<path d="M70.0733 29.8919C69.1655 29.8919 68.4257 29.7383 67.8539 29.4309C67.2821 29.1236 66.8354 28.734 66.5138 28.2623C66.1993 27.7905 65.9741 27.3009 65.8383 26.7935C65.7025 26.2788 65.6203 25.8107 65.5917 25.3889C65.5631 24.9672 65.5488 24.6599 65.5488 24.4669V17.9697H68.5079V23.4376C68.5079 23.7021 68.5222 24.0416 68.5508 24.4562C68.5794 24.8636 68.6688 25.2746 68.8189 25.6891C68.969 26.1037 69.212 26.4504 69.5479 26.7291C69.891 27.0079 70.3735 27.1473 70.9953 27.1473C71.2455 27.1473 71.5135 27.108 71.7994 27.0293C72.0853 26.9507 72.3534 26.8006 72.6035 26.579C72.8537 26.3503 73.0574 26.0179 73.2146 25.5819C73.379 25.1388 73.4612 24.5598 73.4612 23.8451L75.1338 24.6384C75.1338 25.5533 74.9479 26.4111 74.5763 27.2116C74.2046 28.0121 73.6435 28.659 72.893 29.1522C72.1496 29.6454 71.2097 29.8919 70.0733 29.8919ZM73.8258 29.5489V25.7106H73.4612V17.9697H76.3989V29.5489H73.8258Z" fill="white"/>
<path d="M60.0228 29.5492V24.0813C60.0228 23.8168 60.0085 23.4809 59.9799 23.0735C59.9513 22.6589 59.8619 22.2443 59.7118 21.8298C59.5617 21.4152 59.3151 21.0686 58.9721 20.7898C58.6361 20.511 58.1572 20.3717 57.5354 20.3717C57.2852 20.3717 57.0172 20.411 56.7313 20.4896C56.4454 20.5682 56.1773 20.7219 55.9272 20.9506C55.677 21.1722 55.4697 21.501 55.3053 21.937C55.1481 22.373 55.0695 22.9519 55.0695 23.6739L53.3969 22.8805C53.3969 21.9656 53.5828 21.1079 53.9544 20.3073C54.3261 19.5068 54.8836 18.8599 55.627 18.3668C56.3775 17.8736 57.321 17.627 58.4574 17.627C59.3652 17.627 60.105 17.7807 60.6768 18.088C61.2486 18.3953 61.6917 18.7849 62.0062 19.2566C62.3279 19.7284 62.5566 20.2216 62.6924 20.7362C62.8282 21.2437 62.9104 21.7083 62.939 22.13C62.9676 22.5517 62.9819 22.859 62.9819 23.052V29.5492H60.0228ZM52.1104 29.5492V14.1104H54.7049V22.0442H55.0695V29.5492H52.1104Z" fill="white"/>
<path d="M43.5783 29.8705C42.4347 29.8705 41.4018 29.6703 40.4798 29.2701C39.5649 28.8627 38.8108 28.2837 38.2176 27.5332C37.6315 26.7756 37.2598 25.875 37.1025 24.8314L40.1474 24.3811C40.3619 25.2674 40.805 25.95 41.4769 26.4289C42.1488 26.9078 42.9135 27.1472 43.7713 27.1472C44.2502 27.1472 44.7147 27.0722 45.165 26.9221C45.6153 26.772 45.9834 26.5504 46.2694 26.2574C46.5624 25.9643 46.7089 25.6034 46.7089 25.1745C46.7089 25.0173 46.6839 24.8672 46.6339 24.7242C46.591 24.5741 46.5159 24.4347 46.4087 24.3061C46.3015 24.1774 46.1478 24.0559 45.9477 23.9415C45.7547 23.8272 45.5081 23.7235 45.2079 23.6306L41.1981 22.4513C40.8979 22.3655 40.5477 22.244 40.1474 22.0867C39.7543 21.9295 39.3719 21.7043 39.0002 21.4113C38.6286 21.1182 38.3176 20.7323 38.0675 20.2534C37.8244 19.7673 37.7029 19.1562 37.7029 18.42C37.7029 17.3836 37.9638 16.5223 38.4856 15.8361C39.0074 15.15 39.7043 14.6389 40.5763 14.303C41.4483 13.967 42.4132 13.8026 43.4711 13.8098C44.5361 13.8241 45.4867 14.0064 46.323 14.3566C47.1592 14.7068 47.8597 15.2179 48.4244 15.8897C48.989 16.5545 49.3964 17.3693 49.6466 18.3342L46.4945 18.8703C46.3801 18.37 46.1693 17.9483 45.8619 17.6052C45.5546 17.2621 45.1865 17.0012 44.7576 16.8225C44.3359 16.6438 43.8928 16.5473 43.4282 16.533C42.9707 16.5187 42.5383 16.5831 42.1309 16.726C41.7306 16.8618 41.4018 17.062 41.1445 17.3264C40.8943 17.5909 40.7693 17.9054 40.7693 18.2699C40.7693 18.6058 40.8729 18.881 41.0802 19.0955C41.2875 19.3027 41.5484 19.4707 41.8628 19.5994C42.1773 19.728 42.499 19.8352 42.8278 19.921L45.5081 20.6501C45.9084 20.7573 46.3516 20.9002 46.8376 21.0789C47.3236 21.2505 47.7882 21.4935 48.2314 21.808C48.6817 22.1153 49.0498 22.5227 49.3357 23.0302C49.6287 23.5377 49.7753 24.181 49.7753 24.9601C49.7753 25.7892 49.6001 26.5147 49.2499 27.1365C48.9068 27.7512 48.4422 28.2623 47.8561 28.6697C47.27 29.0699 46.6053 29.3701 45.8619 29.5703C45.1257 29.7704 44.3645 29.8705 43.5783 29.8705Z" fill="white"/>
</g>
<defs>
<clipPath id="clip0_362_2531">
<rect width="130" height="40" fill="white"/>
</clipPath>
</defs>
</svg>
